<svg width="30" height="30" viewBox="0 0 30 30" fill="none" xmlns="http://www.w3.org/2000/svg">
<path d="M8.05499 6.24563C7.98913 6.17138 7.90918 6.11095 7.81979 6.06783C7.7304 6.02471 7.63334 5.99976 7.53423 5.99443C7.43513 5.9891 7.33595 6.00349 7.24245 6.03677C7.14895 6.07005 7.06298 6.12156 6.98953 6.18831C6.91608 6.25506 6.85661 6.33572 6.81457 6.42562C6.77252 6.51552 6.74874 6.61288 6.7446 6.71204C6.74045 6.8112 6.75603 6.9102 6.79043 7.00329C6.82483 7.09639 6.87737 7.18173 6.94499 7.25438L8.74874 9.23906C5.34374 11.3288 3.87937 14.55 3.81468 14.6963C3.77203 14.7922 3.75 14.896 3.75 15.0009C3.75 15.1059 3.77203 15.2097 3.81468 15.3056C3.84749 15.3797 4.64155 17.1403 6.40687 18.9056C8.75905 21.2569 11.73 22.5 15 22.5C16.6806 22.5096 18.3442 22.1636 19.8816 21.4847L21.9441 23.7544C22.0099 23.8286 22.0899 23.8891 22.1793 23.9322C22.2686 23.9753 22.3657 24.0002 22.4648 24.0056C22.5639 24.0109 22.6631 23.9965 22.7566 23.9632C22.8501 23.93 22.9361 23.8784 23.0095 23.8117C23.083 23.7449 23.1424 23.6643 23.1845 23.5744C23.2265 23.4845 23.2503 23.3871 23.2544 23.288C23.2586 23.1888 23.243 23.0898 23.2086 22.9967C23.1742 22.9036 23.1217 22.8183 23.0541 22.7456L8.05499 6.24563ZM12.4922 13.3556L16.3987 17.6541C15.8105 17.9636 15.136 18.0689 14.4814 17.9535C13.8268 17.8382 13.229 17.5087 12.7819 17.0168C12.3348 16.5248 12.0638 15.8984 12.0113 15.2357C11.9589 14.573 12.128 13.9117 12.4922 13.3556ZM15 21C12.1144 21 9.59343 19.9509 7.50655 17.8828C6.64997 17.0315 5.92145 16.0605 5.34374 15C5.78343 14.1759 7.18687 11.8697 9.7828 10.3706L11.4703 12.2222C10.817 13.0589 10.4805 14.0997 10.5204 15.1605C10.5602 16.2213 10.9738 17.2339 11.688 18.0192C12.4023 18.8046 13.3711 19.3122 14.4234 19.4522C15.4757 19.5923 16.5436 19.3559 17.4384 18.7847L18.8194 20.3034C17.6006 20.771 16.3053 21.0072 15 21ZM15.5625 12.0534C15.3671 12.0161 15.1944 11.9027 15.0826 11.7382C14.9708 11.5736 14.9289 11.3714 14.9662 11.1759C15.0035 10.9805 15.1169 10.8079 15.2815 10.6961C15.4461 10.5843 15.6483 10.5424 15.8437 10.5797C16.7996 10.765 17.67 11.2544 18.325 11.9748C18.98 12.6952 19.3846 13.608 19.4784 14.5772C19.4969 14.7752 19.436 14.9725 19.3091 15.1257C19.1822 15.2788 18.9996 15.3752 18.8016 15.3938C18.7781 15.3951 18.7547 15.3951 18.7312 15.3938C18.5438 15.3946 18.3628 15.3251 18.224 15.1992C18.0852 15.0732 17.9986 14.8998 17.9812 14.7131C17.9181 14.0685 17.6486 13.4615 17.2128 12.9823C16.7771 12.5031 16.1982 12.1773 15.5625 12.0534ZM26.1825 15.3056C26.1431 15.3938 25.1934 17.4966 23.055 19.4119C22.9819 19.4794 22.8961 19.5317 22.8027 19.5658C22.7092 19.5998 22.6099 19.6149 22.5105 19.6102C22.4111 19.6055 22.3136 19.5811 22.2238 19.5384C22.1339 19.4956 22.0535 19.4354 21.9871 19.3613C21.9208 19.2872 21.8698 19.2006 21.8373 19.1066C21.8047 19.0125 21.7912 18.913 21.7975 18.8137C21.8037 18.7144 21.8297 18.6173 21.8739 18.5282C21.918 18.439 21.9795 18.3595 22.0547 18.2944C23.1038 17.3518 23.9851 16.2378 24.6609 15C24.0819 13.9385 23.3518 12.9668 22.4934 12.1153C20.4066 10.0491 17.8856 9 15 9C14.392 8.99926 13.7849 9.04849 13.185 9.14719C13.0874 9.16444 12.9874 9.16219 12.8907 9.14058C12.794 9.11896 12.7026 9.07839 12.6217 9.02123C12.5407 8.96407 12.4719 8.89144 12.4193 8.80754C12.3666 8.72363 12.331 8.63012 12.3147 8.5324C12.2983 8.43469 12.3015 8.3347 12.324 8.23821C12.3465 8.14173 12.3879 8.05066 12.4458 7.97027C12.5038 7.88988 12.577 7.82176 12.6614 7.76985C12.7458 7.71794 12.8396 7.68326 12.9375 7.66781C13.6192 7.55525 14.309 7.49912 15 7.5C18.27 7.5 21.2409 8.74313 23.5931 11.0953C25.3584 12.8606 26.1525 14.6222 26.1853 14.6963C26.2279 14.7922 26.25 14.896 26.25 15.0009C26.25 15.1059 26.2279 15.2097 26.1853 15.3056H26.1825Z" fill="#9A9AEB"/>
</svg>
