<svg width="26" height="30" viewBox="0 0 26 30" fill="none" xmlns="http://www.w3.org/2000/svg">
<path d="M7.75997 18.8333C7.23255 18.8333 6.71698 18.9897 6.27845 19.2827C5.83992 19.5758 5.49813 19.9922 5.29629 20.4795C5.09446 20.9668 5.04165 21.503 5.14454 22.0202C5.24744 22.5375 5.50141 23.0127 5.87435 23.3856C6.24729 23.7586 6.72245 24.0125 7.23973 24.1154C7.75701 24.2183 8.29319 24.1655 8.78046 23.9637C9.26773 23.7618 9.68421 23.4201 9.97722 22.9815L8.70278 22.4428C8.45273 22.6929 8.11359 22.8333 7.75997 22.8333C7.49626 22.8333 7.23848 22.7551 7.01921 22.6086C6.79994 22.4621 6.62905 22.2539 6.52813 22.0102C6.42722 21.7666 6.40081 21.4985 6.45226 21.2399C6.5037 20.9812 6.63069 20.7437 6.81716 20.5572C7.00363 20.3707 7.24121 20.2437 7.49985 20.1923C7.75849 20.1408 8.02658 20.1672 8.27022 20.2682L7.75997 18.8333Z" fill="#9A9AEB"/>
<path d="M6.42664 14.8333C6.28126 14.8257 6.13739 14.866 6.01701 14.9478C5.89663 15.0297 5.80636 15.1487 5.75997 15.2867L5.38664 16.5067C5.33464 16.661 5.22795 16.7909 5.08671 16.872C4.94547 16.9531 4.77945 16.9796 4.61997 16.9467L3.3333 16.6933C3.20301 16.6749 3.07017 16.6955 2.95154 16.7524C2.8329 16.8094 2.73377 16.9002 2.66664 17.0133L1.3333 19.32C1.26074 19.4404 1.22812 19.5807 1.24009 19.7208C1.25207 19.8609 1.30803 19.9936 1.39997 20.1L2.24664 21.06C2.35352 21.1817 2.41246 21.3381 2.41246 21.5C2.41246 21.6619 2.35352 21.8183 2.24664 21.94L1.39997 22.9C1.30803 23.0064 1.25207 23.1391 1.24009 23.2792C1.22812 23.4193 1.26074 23.5596 1.3333 23.68L2.66664 25.9867C2.7367 26.1083 2.84338 26.2048 2.97147 26.2622C3.09956 26.3197 3.24252 26.3352 3.37997 26.3067L4.6333 26.0533C4.79278 26.0204 4.95881 26.0469 5.10005 26.128C5.24129 26.2091 5.34797 26.339 5.39997 26.4933L5.80664 27.7133C5.85302 27.8513 5.9433 27.9703 6.06368 28.0522C6.18406 28.1341 6.32793 28.1743 6.4733 28.1667H9.13997C9.27973 28.167 9.41607 28.1235 9.52972 28.0421C9.64337 27.9608 9.72858 27.8457 9.7733 27.7133L10.18 26.4933C10.232 26.339 10.3387 26.2091 10.4799 26.128C10.6211 26.0469 10.7872 26.0204 10.9466 26.0533L12.2 26.3067C12.3374 26.3352 12.4804 26.3197 12.6085 26.2622C12.7366 26.2048 12.8432 26.1083 12.9133 25.9867L14.2466 23.68C14.3174 23.5582 14.3478 23.4171 14.3334 23.277L12.8066 23.4333L11.9533 24.9133L11.1666 24.7533C10.6865 24.6552 10.187 24.7367 9.76303 24.9825C9.33905 25.2283 9.02007 25.6212 8.86664 26.0867L8.6133 26.8333H6.90664L6.66664 26.0733C6.51321 25.6079 6.19423 25.215 5.77024 24.9692C5.34626 24.7234 4.84679 24.6419 4.36664 24.74L3.57997 24.9L2.7133 23.4267L3.24664 22.8267C3.57461 22.46 3.75593 21.9853 3.75593 21.4933C3.75593 21.0014 3.57461 20.5267 3.24664 20.16L2.7133 19.56L3.56664 18.0933L4.3533 18.2533C4.83345 18.3515 5.33292 18.2699 5.75691 18.0241C6.18089 17.7783 6.49987 17.3854 6.6533 16.92L6.90664 16.1667H7.75997L7.75997 14.8333H6.42664Z" fill="#9A9AEB"/>
<path d="M10.25 2H12.5H15.5H17.75M10.25 2C9.65326 2 9.08097 2.23705 8.65901 2.65901C8.23705 3.08097 8 3.65326 8 4.25V20.75C8 21.3467 8.23705 21.919 8.65901 22.341C9.08097 22.7629 9.65326 23 10.25 23H17.75C18.3467 23 18.919 22.7629 19.341 22.341C19.7629 21.919 20 21.3467 20 20.75V4.25C20 3.65326 19.7629 3.08097 19.341 2.65901C18.919 2.23705 18.3467 2 17.75 2M10.25 2H11.375C11.4745 2 11.5698 2.03951 11.6402 2.10983C11.7105 2.18016 11.75 2.27554 11.75 2.375C11.75 2.57391 11.829 2.76468 11.9697 2.90533C12.1103 3.04598 12.3011 3.125 12.5 3.125H15.5C15.6989 3.125 15.8897 3.04598 16.0303 2.90533C16.171 2.76468 16.25 2.57391 16.25 2.375C16.25 2.27554 16.2895 2.18016 16.3598 2.10983C16.4302 2.03951 16.5255 2 16.625 2H17.75M12.5 20.75H15.5" stroke="#9A9AEB" stroke-linecap="round" stroke-linejoin="round"/>
<rect x="12" y="2" width="4" height="1" fill="#9A9AEB"/>
<path d="M10 18.25H12" stroke="#9A9AEB" stroke-width="0.75" stroke-linecap="round"/>
<path d="M13 18.25H18" stroke="#9A9AEB" stroke-width="0.75" stroke-linecap="round"/>
<path d="M10 14.75H18" stroke="#9A9AEB" stroke-width="0.75" stroke-linecap="round"/>
<path d="M10 13H13" stroke="#9A9AEB" stroke-width="0.75" stroke-linecap="round"/>
<path d="M16 13H18" stroke="#9A9AEB" stroke-width="0.75" stroke-linecap="round"/>
<path d="M14 13H15" stroke="#9A9AEB" stroke-width="0.75" stroke-linecap="round"/>
<path d="M10 16.5H14" stroke="#9A9AEB" stroke-width="0.75" stroke-linecap="round"/>
<path d="M15 16.5H18" stroke="#9A9AEB" stroke-width="0.75" stroke-linecap="round"/>
<path d="M14.5 7L13.5 10M11.7083 7.04166L10.25 8.49999L11.7083 9.95832M16.2917 7.04166L17.75 8.49999L16.2917 9.95832" stroke="#9A9AEB" stroke-width="0.75" stroke-linecap="round" stroke-linejoin="round"/>
</svg>
