<svg width="24" height="24" viewBox="0 0 24 24" fill="none" xmlns="http://www.w3.org/2000/svg">
<path d="M20.6372 3.36298L20.6371 3.36286L20 3.2V3.1H19.9999H15.2C14.9613 3.1 14.7324 3.19482 14.5636 3.3636C14.3948 3.53239 14.3 3.76131 14.3 4C14.3 4.23869 14.3948 4.46761 14.5636 4.6364C14.7324 4.80518 14.9613 4.9 15.2 4.9H17.8274L9.76291 12.9629L9.7629 12.9629C9.67923 13.0466 9.61287 13.1459 9.56759 13.2552C9.52231 13.3645 9.499 13.4817 9.499 13.6C9.499 13.7183 9.52231 13.8355 9.56759 13.9448C9.61287 14.0541 9.67923 14.1534 9.7629 14.2371C9.84657 14.3208 9.94589 14.3871 10.0552 14.4324C10.1645 14.4777 10.2817 14.501 10.4 14.501C10.5183 14.501 10.6355 14.4777 10.7448 14.4324C10.8541 14.3871 10.9535 14.3208 11.0371 14.2371L11.0371 14.2371L19.1 6.17265V8.8C19.1 9.03869 19.1948 9.26761 19.3636 9.4364C19.5324 9.60518 19.7613 9.7 20 9.7C20.2387 9.7 20.4676 9.60518 20.6364 9.4364C20.8052 9.26761 20.9 9.03869 20.9 8.8V3.9952L20.9 3.99478C20.899 3.75779 20.8046 3.53076 20.6372 3.36298ZM4.80001 3.1C4.34914 3.1 3.91674 3.27911 3.59793 3.59792C3.27912 3.91673 3.10001 4.34913 3.10001 4.8V19.2C3.10001 19.6509 3.27912 20.0833 3.59793 20.4021C3.91674 20.7209 4.34914 20.9 4.80001 20.9H19.2C19.6509 20.9 20.0833 20.7209 20.4021 20.4021C20.7209 20.0833 20.9 19.6509 20.9 19.2V13.6C20.9 13.3613 20.8052 13.1324 20.6364 12.9636C20.4676 12.7948 20.2387 12.7 20 12.7C19.7613 12.7 19.5324 12.7948 19.3636 12.9636C19.1948 13.1324 19.1 13.3613 19.1 13.6V19.1H4.90001V4.9H10.4C10.6387 4.9 10.8676 4.80518 11.0364 4.6364C11.2052 4.46761 11.3 4.23869 11.3 4C11.3 3.7613 11.2052 3.53239 11.0364 3.3636C10.8676 3.19482 10.6387 3.1 10.4 3.1H4.80001Z" fill="#9A9AEB" stroke="#9A9AEB" stroke-width="0.2"/>
</svg>
