<svg width="30" height="30" viewBox="0 0 30 30" fill="none" xmlns="http://www.w3.org/2000/svg">
<path d="M10.3125 1.75H13.125H16.875H19.6875M10.3125 1.75C9.56658 1.75 8.85121 2.04632 8.32376 2.57376C7.79632 3.10121 7.5 3.81658 7.5 4.5625V25.1875C7.5 25.9334 7.79632 26.6488 8.32376 27.1762C8.85121 27.7037 9.56658 28 10.3125 28H19.6875C20.4334 28 21.1488 27.7037 21.6762 27.1762C22.2037 26.6488 22.5 25.9334 22.5 25.1875V4.5625C22.5 3.81658 22.2037 3.10121 21.6762 2.57376C21.1488 2.04632 20.4334 1.75 19.6875 1.75M10.3125 1.75H11.7188C11.8431 1.75 11.9623 1.79939 12.0502 1.88729C12.1381 1.9752 12.1875 2.09443 12.1875 2.21875C12.1875 2.46739 12.2863 2.70585 12.4621 2.88166C12.6379 3.05748 12.8764 3.15625 13.125 3.15625H16.875C17.1236 3.15625 17.3621 3.05748 17.5379 2.88166C17.7137 2.70585 17.8125 2.46739 17.8125 2.21875C17.8125 2.09443 17.8619 1.9752 17.9498 1.88729C18.0377 1.79939 18.1569 1.75 18.2812 1.75H19.6875M13.125 25.1875H16.875" stroke="#9A9AEB" stroke-linecap="round" stroke-linejoin="round"/>
<rect x="12.5" y="1.75" width="5" height="1.25" fill="#9A9AEB"/>
<path d="M10 22.0625H12.5" stroke="#9A9AEB" stroke-width="0.75" stroke-linecap="round"/>
<path d="M13.75 22.0625H20" stroke="#9A9AEB" stroke-width="0.75" stroke-linecap="round"/>
<path d="M10 17.6875H20" stroke="#9A9AEB" stroke-width="0.75" stroke-linecap="round"/>
<path d="M10 15.5H13.75" stroke="#9A9AEB" stroke-width="0.75" stroke-linecap="round"/>
<path d="M17.5 15.5H20" stroke="#9A9AEB" stroke-width="0.75" stroke-linecap="round"/>
<path d="M15 15.5H16.25" stroke="#9A9AEB" stroke-width="0.75" stroke-linecap="round"/>
<path d="M10 19.875H15" stroke="#9A9AEB" stroke-width="0.75" stroke-linecap="round"/>
<path d="M16.25 19.875H20" stroke="#9A9AEB" stroke-width="0.75" stroke-linecap="round"/>
<path d="M15.625 8L14.375 11.75M12.1354 8.05207L10.3125 9.87499L12.1354 11.6979M17.8646 8.05207L19.6875 9.87499L17.8646 11.6979" stroke="#9A9AEB" stroke-width="0.75" stroke-linecap="round" stroke-linejoin="round"/>
</svg>
