<svg width="30" height="30" viewBox="0 0 30 30" fill="none" xmlns="http://www.w3.org/2000/svg">
<g clip-path="url(#clip0_10_108)">
<path d="M23.6429 4.78571H11.0714C10.2036 4.78571 9.5 5.48926 9.5 6.35713V18.9286C9.5 19.7964 10.2036 20.5 11.0714 20.5H23.6429C24.5107 20.5 25.2143 19.7964 25.2143 18.9286V6.35713C25.2143 5.48926 24.5107 4.78571 23.6429 4.78571Z" stroke="#9A9AEB" stroke-linecap="round" stroke-linejoin="round"/>
<path d="M4.78577 23.6429C4.78577 24.0596 4.95133 24.4593 5.24603 24.754C5.54073 25.0487 5.94043 25.2143 6.3572 25.2143M11.0715 25.2143H13.4286M18.1429 25.2143H20.5001M4.78577 16.5714V18.9286M4.78577 9.5V11.8571" stroke="#9A9AEB" stroke-linecap="round" stroke-linejoin="round"/>
</g>
<defs>
<clipPath id="clip0_10_108">
<rect width="22" height="22" fill="white" transform="translate(4 4)"/>
</clipPath>
</defs>
</svg>
