<svg width="30" height="30" viewBox="0 0 30 30" fill="none" xmlns="http://www.w3.org/2000/svg">
<path d="M24.9166 5.66666H5.08331C4.11681 5.66666 3.33331 6.45016 3.33331 7.41666V22.5833C3.33331 23.5498 4.11681 24.3333 5.08331 24.3333H24.9166C25.8831 24.3333 26.6666 23.5498 26.6666 22.5833V7.41666C26.6666 6.45016 25.8831 5.66666 24.9166 5.66666Z" stroke="#9A9AEB" stroke-linejoin="round"/>
<path d="M3.33331 7.12499C3.33331 6.73822 3.51769 6.36728 3.84588 6.09379C4.17406 5.8203 4.61918 5.66666 5.08331 5.66666H24.9166C25.3808 5.66666 25.8259 5.8203 26.1541 6.09379C26.4823 6.36728 26.6666 6.73822 26.6666 7.12499V11.5H3.33331V7.12499Z" stroke="#9A9AEB"/>
<path d="M6.25002 8.58332C6.25002 8.26116 6.51119 7.99999 6.83335 7.99999C7.15552 7.99999 7.41669 8.26116 7.41669 8.58332C7.41669 8.90549 7.15552 9.16666 6.83335 9.16666C6.51119 9.16666 6.25002 8.90549 6.25002 8.58332Z" fill="#9A9AEB"/>
<path d="M8.58333 8.58332C8.58333 8.26116 8.8445 7.99999 9.16667 7.99999C9.48883 7.99999 9.75 8.26116 9.75 8.58332C9.75 8.90549 9.48883 9.16666 9.16667 9.16666C8.8445 9.16666 8.58333 8.90549 8.58333 8.58332Z" fill="#9A9AEB"/>
<path d="M10.9166 8.58332C10.9166 8.26116 11.1778 7.99999 11.5 7.99999C11.8221 7.99999 12.0833 8.26116 12.0833 8.58332C12.0833 8.90549 11.8221 9.16666 11.5 9.16666C11.1778 9.16666 10.9166 8.90549 10.9166 8.58332Z" fill="#9A9AEB"/>
<path d="M19.6667 8.58334H24.3334" stroke="#9A9AEB" stroke-linecap="round"/>
<path d="M16.1667 14.4167L15 17.9167L13.8333 21.4167M11.7106 15.081L8.875 17.9166L11.7106 20.7523M18.2894 15.081L21.125 17.9166L18.2894 20.7523" stroke="#9A9AEB" stroke-linecap="round" stroke-linejoin="round"/>
</svg>
