<svg width="34" height="34" viewBox="0 0 34 34" fill="none" xmlns="http://www.w3.org/2000/svg">
<path fill-rule="evenodd" clip-rule="evenodd" d="M17 34C26.3888 34 34 26.3888 34 17C34 7.61116 26.3888 0 17 0C7.61116 0 0 7.61116 0 17C0 26.3888 7.61116 34 17 34ZM22.7857 13.4358C22.7292 13.4923 22.671 13.5471 22.6113 13.6C22.671 13.6529 22.7292 13.7077 22.7857 13.7643C23.1549 14.1334 23.4477 14.5716 23.6474 15.0538C23.8472 15.5361 23.95 16.053 23.95 16.575C23.95 17.097 23.8472 17.6139 23.6474 18.0962C23.4477 18.5784 23.1549 19.0166 22.7857 19.3857C22.4166 19.7549 21.9784 20.0477 21.4962 20.2474C21.0139 20.4472 20.497 20.55 19.975 20.55C19.453 20.55 18.9361 20.4472 18.4538 20.2474C18.2976 20.1827 18.1461 20.1083 18 20.0246V22.525C18 23.5792 17.5812 24.5903 16.8357 25.3358C16.0903 26.0812 15.0792 26.5 14.025 26.5C12.9708 26.5 11.9597 26.0812 11.2142 25.3358C10.4688 24.5903 10.05 23.5792 10.05 22.525C10.05 21.4708 10.4688 20.4597 11.2142 19.7143C11.2709 19.6576 11.3291 19.6028 11.3887 19.55C11.3291 19.4972 11.2709 19.4424 11.2142 19.3857C10.4688 18.6403 10.05 17.6292 10.05 16.575C10.05 15.5208 10.4688 14.5097 11.2142 13.7643C11.2709 13.7076 11.3291 13.6528 11.3887 13.6C11.3291 13.5472 11.2709 13.4924 11.2143 13.4358C10.4688 12.6903 10.05 11.6792 10.05 10.625C10.05 9.57077 10.4688 8.55971 11.2143 7.81425C11.9597 7.06879 12.9708 6.65 14.025 6.65H19.975C20.497 6.65 21.0139 6.75282 21.4962 6.95258C21.9784 7.15234 22.4166 7.44514 22.7857 7.81425C23.1549 8.18337 23.4477 8.62157 23.6474 9.10383C23.8472 9.5861 23.95 10.103 23.95 10.625C23.95 11.147 23.8472 11.6639 23.6474 12.1462C23.4477 12.6284 23.1549 13.0666 22.7857 13.4358ZM12.6285 9.22847C12.9988 8.85808 13.5012 8.65 14.025 8.65H16V12.6H14.025C13.5012 12.6 12.9988 12.3919 12.6285 12.0215C12.2581 11.6512 12.05 11.1488 12.05 10.625C12.05 10.1012 12.2581 9.59885 12.6285 9.22847ZM19.975 12.6H18V8.65H19.975C20.2344 8.65 20.4912 8.70109 20.7308 8.80034C20.9704 8.89959 21.1881 9.04507 21.3715 9.22847C21.5549 9.41186 21.7004 9.62958 21.7997 9.8692C21.8989 10.1088 21.95 10.3656 21.95 10.625C21.95 10.8844 21.8989 11.1412 21.7997 11.3808C21.7004 11.6204 21.5549 11.8381 21.3715 12.0215C21.1881 12.2049 20.9704 12.3504 20.7308 12.4497C20.4912 12.5489 20.2344 12.6 19.975 12.6ZM14.025 14.6H16L16 18.55H14.025C13.5012 18.55 12.9988 18.3419 12.6285 17.9715C12.2581 17.6012 12.05 17.0988 12.05 16.575C12.05 16.0512 12.2581 15.5489 12.6285 15.1785C12.9988 14.8081 13.5012 14.6 14.025 14.6ZM14.025 20.55H16V22.525C16 23.0488 15.7919 23.5512 15.4215 23.9215C15.0511 24.2919 14.5488 24.5 14.025 24.5C13.5012 24.5 12.9988 24.2919 12.6285 23.9215C12.2581 23.5512 12.05 23.0488 12.05 22.525C12.05 22.0012 12.2581 21.4988 12.6285 21.1285C12.9988 20.7581 13.5012 20.55 14.025 20.55ZM18.1503 17.3308C18.0514 17.0919 18.0003 16.8359 18 16.5774L18 16.575L18 16.5726C18.0003 16.3141 18.0514 16.0581 18.1503 15.8192C18.2496 15.5796 18.3951 15.3619 18.5785 15.1785C18.7619 14.9951 18.9796 14.8496 19.2192 14.7503C19.4588 14.6511 19.7156 14.6 19.975 14.6C20.2344 14.6 20.4912 14.6511 20.7308 14.7503C20.9704 14.8496 21.1881 14.9951 21.3715 15.1785C21.5549 15.3619 21.7004 15.5796 21.7997 15.8192C21.8989 16.0588 21.95 16.3156 21.95 16.575C21.95 16.8344 21.8989 17.0912 21.7997 17.3308C21.7004 17.5704 21.5549 17.7881 21.3715 17.9715C21.1881 18.1549 20.9704 18.3004 20.7308 18.3997C20.4912 18.4989 20.2344 18.55 19.975 18.55C19.7156 18.55 19.4588 18.4989 19.2192 18.3997C18.9796 18.3004 18.7619 18.1549 18.5785 17.9715C18.3951 17.7881 18.2496 17.5704 18.1503 17.3308Z" fill="black"/>
</svg>
