<svg width="34" height="34" viewBox="0 0 34 34" fill="none" xmlns="http://www.w3.org/2000/svg">
<path fill-rule="evenodd" clip-rule="evenodd" d="M17 34C26.3888 34 34 26.3888 34 17C34 7.61116 26.3888 0 17 0C7.61116 0 0 7.61116 0 17C0 26.3888 7.61116 34 17 34ZM9.3204 7.34218C9.45222 6.95448 9.81626 6.69375 10.2258 6.69375C11.8419 6.69375 13.2655 7.57519 14.0268 8.13658C14.5758 7.97172 15.554 7.72405 16.9227 7.72405C18.2915 7.72405 19.2696 7.97172 19.8186 8.13658C20.5799 7.57519 22.0035 6.69375 23.6197 6.69375C24.0292 6.69375 24.3932 6.95448 24.525 7.34218C24.8803 8.38712 24.8975 9.60915 24.6667 10.574C25.3783 11.6909 25.6062 12.8504 25.6062 14.347C25.6062 16.729 25.084 18.4857 23.745 19.6934C22.8742 20.4789 21.9492 20.9785 20.8985 21.2545C20.929 21.4132 20.9474 21.5629 20.9595 21.6949C20.9976 22.112 20.9836 22.5865 20.9748 22.8846C20.9721 22.9774 20.9699 23.053 20.9699 23.1045V26.1948C20.9699 26.7229 20.5418 27.1517 20.0136 27.1517C19.4855 27.1517 19.0574 26.7236 19.0574 26.1954V23.1045C19.0574 22.9613 19.0615 22.8256 19.0656 22.6921C19.0738 22.4229 19.0818 22.1628 19.0549 21.8689C19.0138 21.4185 18.9093 21.2825 18.8874 21.2643C18.5901 21.0173 18.4707 20.6155 18.5849 20.2462C18.6992 19.8769 19.0245 19.6127 19.4094 19.5767C20.6526 19.4604 21.5777 19.0727 22.4641 18.2733C23.2269 17.5853 23.6937 16.4777 23.6937 14.347C23.6937 12.935 23.4655 12.129 22.8547 11.3147C22.6595 11.0544 22.61 10.7126 22.7234 10.4077C22.881 9.98381 22.9518 9.33831 22.8779 8.70373C21.9199 8.94568 21.0575 9.57994 20.6161 9.93804C20.381 10.1288 20.0694 10.1969 19.7761 10.1217C19.6826 10.0977 19.5783 10.0655 19.4603 10.029C18.9531 9.87221 18.191 9.63655 16.9227 9.63655C15.6545 9.63655 14.8923 9.87221 14.3851 10.029C14.2671 10.0655 14.1629 10.0977 14.0693 10.1217C13.776 10.1969 13.4645 10.1288 13.2293 9.93804C12.788 9.57993 11.9255 8.94568 10.9676 8.70373C10.8936 9.33831 10.9645 9.98381 11.1221 10.4077C11.2355 10.7126 11.186 11.0544 10.9908 11.3147C10.38 12.129 10.1517 12.935 10.1517 14.347C10.1517 16.4777 10.6186 17.5853 11.3814 18.2733C12.2677 19.0727 13.1928 19.4604 14.436 19.5767C14.8209 19.6127 15.1463 19.8769 15.2605 20.2462C15.3747 20.6155 15.2554 21.0173 14.958 21.2643C14.9361 21.2825 14.8317 21.4185 14.7905 21.8689C14.7637 22.1628 14.7716 22.4229 14.7798 22.6921C14.7839 22.8256 14.7881 22.9613 14.7881 23.1045V24.1327L14.7881 24.1349L14.7881 24.137V26.1948C14.7881 26.7229 14.3599 27.1517 13.8318 27.1517C13.3037 27.1517 12.8756 26.7236 12.8756 26.1954V25.0232C11.5436 24.8374 10.2925 24.2936 9.4606 23.677L9.45624 23.6738C8.97572 23.3134 8.625 22.8412 8.36311 22.4886C8.31513 22.424 8.27013 22.3634 8.22786 22.3082C7.93037 21.9201 7.65136 21.613 7.20036 21.3727C6.73426 21.1244 6.55773 20.5452 6.80606 20.0792C7.05439 19.6131 7.63355 19.4365 8.09964 19.6849C8.90561 20.1143 9.38388 20.6726 9.74578 21.1448C9.81884 21.2401 9.88432 21.3271 9.9445 21.4071C10.2018 21.7491 10.362 21.9619 10.6016 22.1422C11.1371 22.5384 11.9756 22.9164 12.8755 23.0857C12.875 23.0353 12.873 22.9666 12.8706 22.8846C12.8618 22.5865 12.8479 22.1119 12.886 21.6949C12.898 21.5629 12.9164 21.4132 12.9469 21.2545C11.8962 20.9785 10.9713 20.4789 10.1004 19.6934C8.7614 18.4857 8.2392 16.729 8.2392 14.347C8.2392 12.8504 8.46714 11.6909 9.17873 10.574C8.94792 9.60914 8.96513 8.38712 9.3204 7.34218Z" fill="black"/>
</svg>
