<svg width="34" height="34" viewBox="0 0 34 34" fill="none" xmlns="http://www.w3.org/2000/svg">
<path fill-rule="evenodd" clip-rule="evenodd" d="M34 17C34 26.3888 26.3888 34 17 34C7.61116 34 0 26.3888 0 17C0 7.61116 7.61116 0 17 0C26.3888 0 34 7.61116 34 17ZM15.4214 15.7292C15.3259 15.5764 15.1931 15.4504 15.0355 15.3631C14.8778 15.2757 14.7006 15.2299 14.5204 15.2299C14.3402 15.2299 14.1629 15.2757 14.0053 15.3631C13.8477 15.4504 13.7149 15.5764 13.6194 15.7292L10.0777 21.3959C9.97739 21.5567 9.9219 21.7415 9.91702 21.931C9.91214 22.1205 9.95804 22.3078 10.05 22.4736C10.1419 22.6393 10.2765 22.7775 10.4398 22.8737C10.6031 22.97 10.7892 23.0208 10.9787 23.0208H22.3121C22.5094 23.0208 22.7028 22.9659 22.8707 22.8622C23.0385 22.7584 23.1741 22.61 23.2624 22.4335C23.3506 22.257 23.388 22.0594 23.3703 21.8629C23.3525 21.6664 23.2805 21.4787 23.1621 21.3208L21.0371 18.4875C20.9381 18.3555 20.8098 18.2484 20.6622 18.1747C20.5147 18.1009 20.352 18.0625 20.1871 18.0625C20.0221 18.0625 19.8594 18.1009 19.7119 18.1747C19.5644 18.2484 19.436 18.3555 19.3371 18.4875L18.1414 20.0812L15.4214 15.7292ZM18.6845 11.9557C18.2859 12.3542 18.0621 12.8947 18.0621 13.4583C18.0621 14.0219 18.2859 14.5624 18.6845 14.9609C19.083 15.3594 19.6235 15.5833 20.1871 15.5833C20.7506 15.5833 21.2911 15.3594 21.6897 14.9609C22.0882 14.5624 22.3121 14.0219 22.3121 13.4583C22.3121 12.8947 22.0882 12.3542 21.6897 11.9557C21.2911 11.5572 20.7506 11.3333 20.1871 11.3333C19.6235 11.3333 19.083 11.5572 18.6845 11.9557Z" fill="black"/>
</svg>
