<svg width="34" height="34" viewBox="0 0 34 34" fill="none" xmlns="http://www.w3.org/2000/svg">
<path fill-rule="evenodd" clip-rule="evenodd" d="M34 17C34 26.3888 26.3888 34 17 34C7.61116 34 0 26.3888 0 17C0 7.61116 7.61116 0 17 0C26.3888 0 34 7.61116 34 17ZM11.2625 10.2C10.4735 10.2 9.71678 10.5134 9.15886 11.0714C8.60094 11.6293 8.2875 12.386 8.2875 13.175V22.7375C8.2875 23.5265 8.60094 24.2832 9.15886 24.8411C9.71678 25.3991 10.4735 25.7125 11.2625 25.7125H20.825C21.614 25.7125 22.3707 25.3991 22.9286 24.8411C23.4866 24.2832 23.8 23.5265 23.8 22.7375V17C23.8 16.4132 23.3243 15.9375 22.7375 15.9375C22.1507 15.9375 21.675 16.4132 21.675 17V22.7375C21.675 22.9629 21.5854 23.1791 21.426 23.3385C21.2666 23.4979 21.0504 23.5875 20.825 23.5875H11.2625C11.0371 23.5875 10.8209 23.4979 10.6615 23.3385C10.5021 23.1791 10.4125 22.9629 10.4125 22.7375V13.175C10.4125 12.9496 10.5021 12.7334 10.6615 12.574C10.8209 12.4146 11.0371 12.325 11.2625 12.325H17C17.5868 12.325 18.0625 11.8493 18.0625 11.2625C18.0625 10.6757 17.5868 10.2 17 10.2H11.2625ZM19.8688 10.4125C19.2819 10.4125 18.8063 9.9368 18.8063 9.35C18.8063 8.7632 19.2819 8.2875 19.8688 8.2875H24.65C25.2368 8.2875 25.7125 8.7632 25.7125 9.35V14.1313C25.7125 14.7181 25.2368 15.1938 24.65 15.1938C24.0632 15.1938 23.5875 14.7181 23.5875 14.1313V11.9151L16.7951 18.7076C16.3801 19.1225 15.7074 19.1225 15.2924 18.7076C14.8775 18.2926 14.8775 17.6199 15.2924 17.2049L22.0849 10.4125H19.8688Z" fill="black"/>
</svg>
