<svg width="34" height="34" viewBox="0 0 34 34" fill="none" xmlns="http://www.w3.org/2000/svg">
<path fill-rule="evenodd" clip-rule="evenodd" d="M34 17C34 26.3888 26.3888 34 17 34C7.61116 34 0 26.3888 0 17C0 7.61116 7.61116 0 17 0C26.3888 0 34 7.61116 34 17ZM15.5847 7.6501H9.9875C9.36756 7.6501 8.773 7.89637 8.33464 8.33473C7.89627 8.7731 7.65 9.36765 7.65 9.98759V24.0125C7.65 24.6325 7.89627 25.227 8.33464 25.6654C8.773 26.1037 9.36756 26.35 9.9875 26.35H24.0125C24.6324 26.35 25.227 26.1037 25.6654 25.6654C26.1037 25.227 26.35 24.6325 26.35 24.0125V9.98759C26.35 9.36765 26.1037 8.7731 25.6654 8.33473C25.227 7.89637 24.6324 7.6501 24.0125 7.6501H21.222C21.2129 7.64997 21.2038 7.64997 21.1947 7.6501H15.612L15.6009 7.65L15.5847 7.6501ZM19.4604 9.52009H16.0979L14.5396 11.8576H17.9021L19.4604 9.52009ZM21.7079 9.52009L20.1496 11.8576H24.48V9.98759C24.48 9.8636 24.4307 9.74469 24.3431 9.65702C24.2554 9.56934 24.1365 9.52009 24.0125 9.52009H21.7079ZM24.48 13.7276H18.4153C18.4118 13.7276 18.4083 13.7277 18.4048 13.7277C18.3992 13.7277 18.3936 13.7276 18.388 13.7276H12.8053C12.7962 13.7277 12.7871 13.7277 12.778 13.7276H9.52V24.0125C9.52 24.1365 9.56925 24.2554 9.65693 24.3431C9.7446 24.4308 9.86351 24.48 9.9875 24.48H24.0125C24.1365 24.48 24.2554 24.4308 24.3431 24.3431C24.4307 24.2554 24.48 24.1365 24.48 24.0125V13.7276ZM9.52 11.8576H12.2921L13.8504 9.52009H9.9875C9.86351 9.52009 9.7446 9.56934 9.65693 9.65702C9.56925 9.74469 9.52 9.8636 9.52 9.98759V11.8576ZM14.8962 15.2263C15.1855 15.0593 15.542 15.0593 15.8312 15.2263L20.74 18.0603C21.0293 18.2273 21.2075 18.536 21.2075 18.87C21.2075 19.2041 21.0293 19.5128 20.74 19.6798L15.8312 22.5137C15.542 22.6808 15.1855 22.6808 14.8962 22.5137C14.607 22.3467 14.4288 22.0381 14.4288 21.704V16.0361C14.4288 15.702 14.607 15.3934 14.8962 15.2263ZM18.4025 18.87L16.2988 20.0846V17.6555L18.4025 18.87Z" fill="black"/>
</svg>
